<?xml version="1.0" encoding="iso-8859-1"?>
<!-- Generator: Adobe Illustrator 19.0.0, SVG Export Plug-In . SVG Version: 6.00 Build 0)  -->
<svg version="1.1" id="Layer_1" xmlns="http://www.w3.org/2000/svg" xmlns:xlink="http://www.w3.org/1999/xlink" x="0px" y="0px"
	 viewBox="0 0 495 495" style="enable-background:new 0 0 495 495;" xml:space="preserve">
<g>
	<polygon style="fill:#1E81CE;" points="247.5,0 247.5,40 455,40 455,455 247.5,455 247.5,495 495,495 495,0 	"/>
	<polygon style="fill:#5AAAE7;" points="40,455 40,40 247.5,40 247.5,0 0,0 0,495 247.5,495 247.5,455 	"/>
	<path style="fill:#5AAAE7;" d="M322.958,247.492c0,19.417-9.086,35.692-19.554,50.311
		c-17.949,25.019-60.711,106.993-60.711,106.993c1.606,0,3.21,0.205,4.816,0.205C334.486,405,405,334.486,405,247.492
		c0-21.142-4.201-41.294-11.801-59.704H293.14C311.072,201.535,322.958,223.087,322.958,247.492z"/>
	<path style="fill:#5AAAE7;" d="M247.167,172.11c34.497-0.256,137.818-1.332,137.818-1.332C358.036,122.619,306.683,90,247.509,90
		c-49.303,0-93.33,22.68-122.158,58.167l48.108,85.457C179.932,198.734,210.416,172.383,247.167,172.11z"/>
	<path style="fill:#5AAAE7;" d="M224.095,403.071l48.962-84.86c-8.01,2.937-16.548,4.731-25.549,4.731
		c-32.892,0-57.979-22.201-70.924-50.568c-12.996-28.469-62.094-108.922-62.094-108.922C99.069,187.788,90,216.547,90,247.492
		C90,326.476,148.236,391.73,224.095,403.071z"/>
	<path style="fill:#5AAAE7;" d="M247.509,196.6c-28.161,0-50.977,22.816-50.977,50.892c0,28.161,22.816,50.977,50.977,50.977
		c28.144,0,50.892-22.816,50.892-50.977C298.4,219.416,275.652,196.6,247.509,196.6z"/>
</g>
<g>
</g>
<g>
</g>
<g>
</g>
<g>
</g>
<g>
</g>
<g>
</g>
<g>
</g>
<g>
</g>
<g>
</g>
<g>
</g>
<g>
</g>
<g>
</g>
<g>
</g>
<g>
</g>
<g>
</g>
</svg>
